<svg width="15" height="15" viewBox="0 0 15 15" fill="none" xmlns="http://www.w3.org/2000/svg">
<path d="M15 7.5C15 11.6426 11.6426 15 7.5 15C3.35742 15 0 11.6426 0 7.5C0 3.35742 3.35742 0 7.5 0C11.6426 0 15 3.35742 15 7.5ZM5.15625 4.92188V10.0781C5.15625 10.333 5.29395 10.5674 5.5166 10.6904C5.73633 10.8164 6.00879 10.8105 6.22559 10.6787L10.4443 8.10059C10.6523 7.97168 10.7812 7.74609 10.7812 7.5C10.7812 7.25391 10.6523 7.02832 10.4443 6.89941L6.22559 4.32129C6.00879 4.16309 5.73633 4.18359 5.5166 4.30957C5.29395 4.43262 5.15625 4.66699 5.15625 4.92188Z" fill="#4A3F22"/>
</svg>
